# xmcd
# 
# Track frame offsets:
#     150
#     2150
#     19187
#     40857
#     58937
#     74082
#     88860
#     109282
#     127565
#     143855
#     158552
#     170000
#     188097
#     207657
# 
# Disc length: 2802
# 
# Revision: 3
# Processed by: cddbd v1.5.2PL0 Copyright (c) Steve Scherf et al.
# Submitted via: BonkEnc v1.0.5
# 
DISCID=c80af00e
DTITLE=Rolando Boldrin and Renato Teixeira - Juntos
DYEAR=2005
DGENRE=Caipira
TTITLE0=Ventania
TTITLE1=Guardiôes das Florestas
TTITLE2=Brasil Poeira
TTITLE3=Minha História
TTITLE4=Funeral de um lavrador
TTITLE5=as Plantinhas do Mato
TTITLE6=Chico Mineiro
TTITLE7=Tempo das aves
TTITLE8=Zê Ponte
TTITLE9=Três Nascentes
TTITLE10=Boi Lua
TTITLE11=Vaca Estrela Boi Fubâ
TTITLE12=Acorda Maria Bonita
TTITLE13=Trecho do poema Estradas
EXTD=YEAR: 2005
EXTT0=
EXTT1=
EXTT2=
EXTT3=
EXTT4=
EXTT5=
EXTT6=
EXTT7=
EXTT8=
EXTT9=
EXTT10=
EXTT11=
EXTT12=
EXTT13=
PLAYORDER=
